<?xml version="1.0" encoding="UTF-8"?>
<!-- Created with EazyDraw for Mac ( http://www.eazydraw.com/ ) -->

<svg
    version="1.1"
    xmlns:dc="http://purl.org/dc/elements/1.1/"
    xmlns:cc="http://creativecommons.org/ns#"
    xmlns:rdf="http://www.w3.org/1999/02/22-rdf-syntax-ns#"
    xmlns:svg="http://www.w3.org/2000/svg"
    xmlns:xlink="http://www.w3.org/1999/xlink"
    xmlns="http://www.w3.org/2000/svg"
    width="360"
    height="360"
    viewBox="0, 0, 360, 360"
    preserveAspectRatio="none"
    id="svg2">
   <defs
       id="defs_135EBD36"/>
   <metadata
       id="metadata7">
      <rdf:RDF>
         <cc:Work
             rdf:about="">
            <dc:format>image/svg+xml</dc:format>
            <dc:type rdf:resource="http://purl.org/dc/dcmitype/StillImage"/>
            <dc:title></dc:title>
         </cc:Work>
      </rdf:RDF>
   </metadata>
   <g
       id="layer_Paper"
       style="fill:#000000;fill-opacity:1;stroke:#000000;stroke-opacity:1;fill-rule:nonzero;stroke-linecap:square;stroke-linejoin:miter;stroke-width:1;stroke-miterlimit:10">
      <g
          id="CE0B39F4">
         <circle
             style="fill:#231F20;stroke:none"
             id="03ABA866"
             cx="180"
             cy="179.982739468"
             r="180"/>
         <g
             id="366EBD36">
            <path
                style="fill:#AD974F;stroke:none"
                id="045EBD36"
                d="M280.729358611,266.943189646 C247.519358611,266.943189646 214.309358611,266.943189646 181.099358611,266.943189646 C168.471295471,266.943189646 156.786412321,264.729211786 146.044358611,260.301189646 C135.302304901,255.873167506 125.995397971,249.682229416 118.123358611,241.728189646
C110.251319251,233.774149876 104.101380751,224.344244176 99.673358611,213.438189646 C95.245336471,202.532135116 93.031358611,190.601254426 93.031358611,177.645189646 C93.031358611,164.689124866 95.245336471,152.758244176 99.673358611,141.852189646
C104.101380751,130.946135116 110.251319251,121.516229416 118.123358611,113.562189646 C125.995397971,105.608149876 135.302304901,99.417211786 146.044358611,94.989189646 C156.786412321,90.561167506 168.471295471,88.347189646 181.099358611,88.347189646
C193.563420931,88.347189646 205.166304901,90.561167506 215.908358611,94.989189646 C226.650412321,99.417211786 235.957319251,105.608149876 243.829358611,113.562189646 C251.701397971,121.516229416 257.851336471,130.946135116 262.279358611,141.852189646
C266.707380751,152.758244176 268.921358611,164.689124866 268.921358611,177.645189646 C268.921358611,193.389268366 265.682391001,207.534126916 259.204358611,220.080189646 C252.726326221,232.626252376 242.353429951,242.671151926 228.085358611,250.215189646
C228.085358611,250.379189646 228.085358611,250.543189646 228.085358611,250.707189646 C245.633358611,250.707189646 263.181358611,250.707189646 280.729358611,250.707189646 z M112.219358611,177.645189646 C112.219358611,187.321238026 113.777343031,196.546145776 116.893358611,205.320189646
C120.009374191,214.094233516 124.519329091,221.843156026 130.423358611,228.567189646 C136.327388131,235.291223266 143.543315971,240.662169556 152.071358611,244.680189646 C160.599401251,248.698209736 170.275304491,250.707189646 181.099358611,250.707189646
C191.759411911,250.707189646 201.353315971,248.698209736 209.881358611,244.680189646 C218.409401251,240.662169556 225.625329091,235.291223266 231.529358611,228.567189646 C237.433388131,221.843156026 241.943343031,214.094233516 245.059358611,205.320189646
C248.175374191,196.546145776 249.733358611,187.321238026 249.733358611,177.645189646 C249.733358611,167.969141266 248.175374191,158.744233516 245.059358611,149.970189646 C241.943343031,141.196145776 237.433388131,133.447223266 231.529358611,126.723189646
C225.625329091,119.999156026 218.409401251,114.628209736 209.881358611,110.610189646 C201.353315971,106.592169556 191.759411911,104.583189646 181.099358611,104.583189646 C170.275304491,104.583189646 160.599401251,106.592169556 152.071358611,110.610189646
C143.543315971,114.628209736 136.327388131,119.999156026 130.423358611,126.723189646 C124.519329091,133.447223266 120.009374191,141.196145776 116.893358611,149.970189646 C113.777343031,158.744233516 112.219358611,167.969141266 112.219358611,177.645189646
z"/>
         </g>
      </g>
   </g>
</svg>
